<svg width="50" height="46" viewBox="0 0 50 46" fill="none" xmlns="http://www.w3.org/2000/svg">
<path d="M14.7727 0C6.625 0 0 6.095 0 13.5909V32.4091C0 39.905 6.625 46 14.7727 46H35.2273C43.375 46 50 39.905 50 32.4091V13.5909C50 6.095 43.375 0 35.2273 0H14.7727ZM38.6364 8.36364C39.8864 8.36364 40.9091 9.30455 40.9091 10.4545C40.9091 11.6045 39.8864 12.5455 38.6364 12.5455C37.3864 12.5455 36.3636 11.6045 36.3636 10.4545C36.3636 9.30455 37.3864 8.36364 38.6364 8.36364ZM25 11.5C31.8977 11.5 37.5 16.6541 37.5 23C37.5 29.3459 31.8977 34.5 25 34.5C18.1023 34.5 12.5 29.3459 12.5 23C12.5 16.6541 18.1023 11.5 25 11.5ZM25 13.5909C19.3636 13.5909 14.7727 17.8145 14.7727 23C14.7727 28.1855 19.3636 32.4091 25 32.4091C30.6364 32.4091 35.2273 28.1855 35.2273 23C35.2273 17.8145 30.6364 13.5909 25 13.5909Z" fill="#FFFF"/>
</svg>
