<svg width="54" height="54" viewBox="0 0 54 54" fill="none" xmlns="http://www.w3.org/2000/svg">
<path d="M44.28 4.31982H9.72001C6.73921 4.31982 4.32001 6.73902 4.32001 9.71982V44.2798C4.32001 47.2606 6.73921 49.6798 9.72001 49.6798H44.28C47.2608 49.6798 49.68 47.2606 49.68 44.2798V9.71982C49.68 6.73902 47.2608 4.31982 44.28 4.31982ZM18.36 21.5998V42.1198H11.88V21.5998H18.36ZM11.88 15.6274C11.88 14.1154 13.176 12.9598 15.12 12.9598C17.064 12.9598 18.2844 14.1154 18.36 15.6274C18.36 17.1394 17.1504 18.3598 15.12 18.3598C13.176 18.3598 11.88 17.1394 11.88 15.6274ZM42.12 42.1198H35.64C35.64 42.1198 35.64 32.119 35.64 31.3198C35.64 29.1598 34.56 26.9998 31.86 26.9566H31.7736C29.16 26.9566 28.08 29.1814 28.08 31.3198C28.08 32.3026 28.08 42.1198 28.08 42.1198H21.6V21.5998H28.08V24.3646C28.08 24.3646 30.1644 21.5998 34.3548 21.5998C38.6424 21.5998 42.12 24.5482 42.12 30.5206V42.1198Z" fill="#FFFF"/>
</svg>
