<svg width="55" height="51" viewBox="0 0 55 51" fill="none" xmlns="http://www.w3.org/2000/svg">
<path fill-rule="evenodd" clip-rule="evenodd" d="M46.7745 7.3363C41.6239 2.60901 34.7802 0 27.4908 0C12.4667 0 0.231691 11.2212 0.231691 25.0105C0.222778 29.4188 1.47925 33.7208 3.86743 37.5157L0 50.479L14.4539 46.9949C18.4282 48.9905 22.9194 50.0374 27.4819 50.0455H27.4908C42.515 50.0455 54.7411 38.8243 54.75 25.0269C54.75 18.3448 51.9163 12.0636 46.7745 7.3363ZM27.4908 45.8171H27.4819C23.4185 45.8171 19.4263 44.8112 15.9509 42.9219L15.1222 42.472L6.54077 44.5331L8.83093 36.8615L8.29627 36.0763C6.02393 32.7639 4.82984 28.9363 4.82984 25.0105C4.82984 13.5521 14.9974 4.22839 27.4998 4.22839C33.5504 4.22839 39.2357 6.39575 43.5131 10.3215C47.7904 14.2555 50.1429 19.4735 50.1429 25.0269C50.1429 36.4934 39.9753 45.8171 27.4908 45.8171ZM39.913 30.2449C39.2357 29.9341 35.8851 28.421 35.2614 28.2166C34.6376 28.0039 34.1831 27.9058 33.7286 28.5273C33.2742 29.1571 31.9731 30.5638 31.5721 30.981C31.1801 31.3899 30.7791 31.4471 30.1018 31.1364C29.4156 30.8256 27.2235 30.1631 24.6215 28.0284C22.5986 26.3763 21.2263 24.3235 20.8342 23.7019C20.4332 23.0721 20.7897 22.7368 21.1283 22.426C21.4402 22.148 21.8145 21.6981 22.1531 21.3301C22.4917 20.9702 22.6075 20.7085 22.8392 20.2914C23.062 19.8743 22.9462 19.5062 22.7769 19.1954C22.6075 18.8846 21.2441 15.8013 20.6738 14.5499C20.1213 13.3313 19.5599 13.5031 19.1411 13.4785C18.749 13.4622 18.2946 13.4622 17.8401 13.4622C17.3856 13.4622 16.646 13.6176 16.0222 14.2473C15.3984 14.8689 13.6429 16.382 13.6429 19.4572C13.6429 22.5323 16.0846 25.5094 16.4232 25.9265C16.7618 26.3354 21.2263 32.6494 28.0612 35.3566C29.683 36.0027 30.9484 36.3871 31.9375 36.6733C33.5682 37.1477 35.0564 37.0823 36.2327 36.9269C37.5426 36.7469 40.2605 35.4138 40.8308 33.9498C41.3922 32.494 41.3922 31.2427 41.2229 30.981C41.0536 30.7192 40.5991 30.5638 39.913 30.2449Z" fill="#FFFF"/>
</svg>
