<svg width="344" height="50" viewBox="0 0 344 50" fill="none" xmlns="http://www.w3.org/2000/svg">
<path d="M22.7291 0H31.7914V24.1593C31.7914 26.9514 31.1249 29.3838 29.7918 31.4565C28.4588 33.517 26.5998 35.1142 24.215 36.2481C21.8302 37.3698 19.0602 37.9307 15.9049 37.9307C12.7129 37.9307 9.92449 37.3698 7.53968 36.2481C5.15486 35.1142 3.30205 33.517 1.98123 31.4565C0.66041 29.3838 0 26.9514 0 24.1593V0H9.08063V23.3729C9.08063 24.6653 9.36192 25.8175 9.92449 26.8295C10.4993 27.8414 11.3003 28.634 12.3276 29.207C13.3549 29.78 14.5474 30.0666 15.9049 30.0666C17.2624 30.0666 18.4487 29.78 19.4637 29.207C20.491 28.634 21.2921 27.8414 21.8669 26.8295C22.4417 25.8175 22.7291 24.6653 22.7291 23.3729V0Z" fill="white"/>
<path d="M82.3723 0V37.4552H74.6676L59.7166 15.838H59.4781V37.4552H50.3975V0H58.2124L72.9982 21.5806H73.31V0H82.3723Z" fill="white"/>
<path d="M99.7677 7.35204V0H131.522V7.35204H120.13V37.4552H111.178V7.35204H99.7677Z" fill="white"/>
<path d="M157.953 0V37.4552H148.872V0H157.953Z" fill="white"/>
<path d="M175.339 7.35204V0H207.093V7.35204H195.701V37.4552H186.749V7.35204H175.339Z" fill="white"/>
<path d="M224.443 37.4552V0H233.524V30.1031H249.153V37.4552H224.443Z" fill="white"/>
<path d="M266.769 37.4552V0H292.965V7.35204H275.849V15.0333H291.626V22.4036H275.849V30.1031H292.965V37.4552H266.769Z" fill="white"/>
<path d="M325.454 37.4552H311.567V0H325.435C329.263 0 332.559 0.749836 335.323 2.24951C338.099 3.73698 340.239 5.88285 341.744 8.68712C343.248 11.4792 344 14.8199 344 18.7093C344 22.6109 343.248 25.9638 341.744 28.7681C340.252 31.5723 338.117 33.7243 335.341 35.224C332.565 36.7115 329.269 37.4552 325.454 37.4552ZM320.647 29.7374H325.105C327.208 29.7374 328.988 29.3838 330.443 28.6766C331.911 27.9573 333.018 26.7929 333.764 25.1835C334.522 23.5619 334.901 21.4038 334.901 18.7093C334.901 16.0148 334.522 13.8689 333.764 12.2717C333.005 10.6623 331.886 9.50401 330.407 8.79685C328.939 8.07749 327.129 7.71782 324.977 7.71782H320.647V29.7374Z" fill="white"/>
<path d="M158.429 49.9012H156.689V44.283H158.506C159.052 44.283 159.52 44.3954 159.909 44.6204C160.298 44.8435 160.596 45.1645 160.803 45.5833C161.011 46.0003 161.114 46.4995 161.114 47.0811C161.114 47.6664 161.01 48.1702 160.801 48.5927C160.591 49.0133 160.287 49.337 159.887 49.5638C159.487 49.7888 159.001 49.9012 158.429 49.9012ZM157.372 49.2977H158.385C158.851 49.2977 159.237 49.2081 159.543 49.0289C159.849 48.8496 160.078 48.5945 160.228 48.2635C160.379 47.9325 160.454 47.5383 160.454 47.0811C160.454 46.6276 160.38 46.2371 160.231 45.9097C160.082 45.5805 159.86 45.3282 159.565 45.1526C159.27 44.9752 158.902 44.8865 158.462 44.8865H157.372V49.2977Z" fill="#FF43AE"/>
<path d="M166.133 49.9012V44.283H169.534V44.8865H166.816V46.7849H169.358V47.3884H166.816V49.2977H169.578V49.9012H166.133Z" fill="#FF43AE"/>
<path d="M174.87 44.283L176.543 49.0124H176.609L178.282 44.283H178.998L176.928 49.9012H176.224L174.155 44.283H174.87Z" fill="#FF43AE"/>
<path d="M186.832 45.6875C186.799 45.4095 186.665 45.1937 186.43 45.0401C186.195 44.8865 185.907 44.8097 185.566 44.8097C185.316 44.8097 185.098 44.8499 184.911 44.9304C184.726 45.0109 184.581 45.1215 184.476 45.2623C184.373 45.4031 184.322 45.5632 184.322 45.7424C184.322 45.8924 184.358 46.0213 184.429 46.1292C184.503 46.2353 184.596 46.324 184.71 46.3953C184.824 46.4648 184.943 46.5224 185.068 46.5681C185.193 46.612 185.307 46.6477 185.412 46.6751L185.984 46.8287C186.131 46.8672 186.294 46.9202 186.474 46.9879C186.656 47.0555 186.829 47.1479 186.994 47.2649C187.161 47.3801 187.299 47.5283 187.407 47.7093C187.515 47.8904 187.569 48.1126 187.569 48.376C187.569 48.6796 187.489 48.9539 187.33 49.199C187.172 49.444 186.941 49.6388 186.636 49.7833C186.334 49.9278 185.966 50 185.533 50C185.129 50 184.78 49.9351 184.484 49.8052C184.191 49.6754 183.96 49.4943 183.791 49.2621C183.624 49.0298 183.53 48.76 183.508 48.4528H184.212C184.23 48.6649 184.302 48.8405 184.427 48.9795C184.553 49.1167 184.713 49.2191 184.905 49.2867C185.1 49.3526 185.309 49.3855 185.533 49.3855C185.793 49.3855 186.027 49.3434 186.235 49.2593C186.442 49.1734 186.606 49.0545 186.727 48.9027C186.848 48.7491 186.909 48.5698 186.909 48.365C186.909 48.1784 186.856 48.0267 186.752 47.9096C186.647 47.7926 186.51 47.6975 186.339 47.6243C186.169 47.5511 185.984 47.4871 185.786 47.4323L185.093 47.2348C184.652 47.1086 184.304 46.9284 184.047 46.6943C183.79 46.4602 183.662 46.1539 183.662 45.7753C183.662 45.4608 183.747 45.1864 183.918 44.9523C184.09 44.7164 184.321 44.5335 184.611 44.4037C184.903 44.272 185.228 44.2062 185.588 44.2062C185.951 44.2062 186.274 44.2711 186.557 44.4009C186.839 44.5289 187.063 44.7045 187.228 44.9276C187.395 45.1508 187.483 45.4041 187.492 45.6875H186.832Z" fill="#FF43AE"/>
</svg>
