<svg width="800" height="89" viewBox="0 0 800 89" fill="none" xmlns="http://www.w3.org/2000/svg">
<g clip-path="url(#clip0_80_2)">
<path d="M53.4034 0.727234H74.4545V57.0199C74.4545 63.5256 72.9062 69.1932 69.8097 74.0227C66.7131 78.8239 62.3949 82.5454 56.8551 85.1875C51.3153 87.8011 44.8807 89.1079 37.5511 89.1079C30.1364 89.1079 23.6591 87.8011 18.1193 85.1875C12.5795 82.5454 8.27556 78.8239 5.20738 74.0227C2.13919 69.1932 0.605103 63.5256 0.605103 57.0199V0.727234H21.6989V55.1875C21.6989 58.1989 22.3523 60.8835 23.6591 63.2415C24.9943 65.5994 26.8551 67.446 29.2415 68.7812C31.6278 70.1165 34.3977 70.7841 37.5511 70.7841C40.7045 70.7841 43.4602 70.1165 45.8182 68.7812C48.2045 67.446 50.0653 65.5994 51.4006 63.2415C52.7358 60.8835 53.4034 58.1989 53.4034 55.1875V0.727234Z" fill="white"/>
<path d="M191.951 0.727234V88H174.053L139.323 37.6307H138.769V88H117.675V0.727234H135.829L170.175 51.0114H170.9V0.727234H191.951Z" fill="white"/>
<path d="M232.359 17.8579V0.727234H306.124V17.8579H279.66V88H258.865V17.8579H232.359Z" fill="white"/>
<path d="M367.519 0.727234V88H346.425V0.727234H367.519Z" fill="white"/>
<path d="M407.906 17.8579V0.727234H481.67V17.8579H455.207V88H434.412V17.8579H407.906Z" fill="white"/>
<path d="M521.972 88V0.727234H543.066V70.8693H579.373V88H521.972Z" fill="white"/>
<path d="M620.293 88V0.727234H681.145V17.8579H641.386V35.7557H678.034V52.929H641.386V70.8693H681.145V88H620.293Z" fill="white"/>
<path d="M756.614 88H724.355V0.727234H756.571C765.463 0.727234 773.119 2.47439 779.54 5.96871C785.989 9.43462 790.96 14.4346 794.455 20.9687C797.949 27.4744 799.696 35.2585 799.696 44.321C799.696 53.4119 797.949 61.2244 794.455 67.7585C790.989 74.2926 786.031 79.3068 779.582 82.8011C773.134 86.267 765.477 88 756.614 88ZM745.449 70.017H755.804C760.69 70.017 764.824 69.1932 768.205 67.5454C771.614 65.8693 774.185 63.1562 775.918 59.4062C777.679 55.6278 778.56 50.5994 778.56 44.321C778.56 38.0426 777.679 33.0426 775.918 29.321C774.156 25.571 771.557 22.8722 768.119 21.2244C764.71 19.5483 760.506 18.7102 755.506 18.7102H745.449V70.017Z" fill="white"/>
</g>
<defs>
<clipPath id="clip0_80_2">
<rect width="800" height="89" fill="white"/>
</clipPath>
</defs>
</svg>
