<svg width="800" height="118" viewBox="0 0 800 118" fill="none" xmlns="http://www.w3.org/2000/svg">
<path d="M53.4034 0.727264H74.4545V57.0199C74.4545 63.5256 72.9062 69.1932 69.8097 74.0227C66.7131 78.8239 62.3949 82.5454 56.8551 85.1875C51.3153 87.8011 44.8807 89.1079 37.5511 89.1079C30.1364 89.1079 23.6591 87.8011 18.1193 85.1875C12.5795 82.5454 8.27556 78.8239 5.20738 74.0227C2.13919 69.1932 0.605103 63.5256 0.605103 57.0199V0.727264H21.6989V55.1875C21.6989 58.1989 22.3523 60.8835 23.6591 63.2415C24.9943 65.5994 26.8551 67.446 29.2415 68.7812C31.6278 70.1165 34.3977 70.7841 37.5511 70.7841C40.7045 70.7841 43.4602 70.1165 45.8182 68.7812C48.2045 67.446 50.0653 65.5994 51.4006 63.2415C52.7358 60.8835 53.4034 58.1989 53.4034 55.1875V0.727264Z" fill="white"/>
<path d="M191.951 0.727264V88H174.053L139.323 37.6307H138.769V88H117.675V0.727264H135.829L170.175 51.0114H170.9V0.727264H191.951Z" fill="white"/>
<path d="M232.359 17.8579V0.727264H306.124V17.8579H279.66V88H258.865V17.8579H232.359Z" fill="white"/>
<path d="M367.519 0.727264V88H346.425V0.727264H367.519Z" fill="white"/>
<path d="M407.906 17.8579V0.727264H481.67V17.8579H455.207V88H434.412V17.8579H407.906Z" fill="white"/>
<path d="M521.972 88V0.727264H543.066V70.8693H579.373V88H521.972Z" fill="white"/>
<path d="M620.293 88V0.727264H681.145V17.8579H641.386V35.7557H678.034V52.929H641.386V70.8693H681.145V88H620.293Z" fill="white"/>
<path d="M756.614 88H724.355V0.727264H756.571C765.463 0.727264 773.119 2.47442 779.54 5.96874C785.989 9.43465 790.96 14.4346 794.455 20.9687C797.949 27.4744 799.696 35.2585 799.696 44.321C799.696 53.4119 797.949 61.2244 794.455 67.7585C790.989 74.2926 786.031 79.3068 779.582 82.8011C773.134 86.267 765.477 88 756.614 88ZM745.449 70.017H755.804C760.69 70.017 764.824 69.1932 768.205 67.5454C771.614 65.8693 774.185 63.1562 775.918 59.4062C777.679 55.6278 778.56 50.5994 778.56 44.321C778.56 38.0426 777.679 33.0426 775.918 29.321C774.156 25.571 771.557 22.8722 768.119 21.2244C764.71 19.5483 760.506 18.7102 755.506 18.7102H745.449V70.017Z" fill="white"/>
<path d="M368.625 117H364.585V103.909H368.804C370.074 103.909 371.16 104.171 372.064 104.695C372.967 105.215 373.66 105.963 374.141 106.939C374.623 107.911 374.864 109.074 374.864 110.429C374.864 111.793 374.621 112.967 374.135 113.951C373.649 114.931 372.942 115.685 372.013 116.214C371.084 116.738 369.955 117 368.625 117ZM366.17 115.594H368.523C369.605 115.594 370.502 115.385 371.214 114.967C371.925 114.55 372.456 113.955 372.805 113.184C373.155 112.413 373.33 111.494 373.33 110.429C373.33 109.372 373.157 108.462 372.812 107.7C372.467 106.933 371.951 106.344 371.265 105.935C370.579 105.522 369.724 105.315 368.702 105.315H366.17V115.594Z" fill="#FF43AE"/>
<path d="M386.523 117V103.909H394.423V105.315H388.108V109.739H394.014V111.145H388.108V115.594H394.526V117H386.523Z" fill="#FF43AE"/>
<path d="M406.817 103.909L410.704 114.929H410.857L414.744 103.909H416.406L411.599 117H409.962L405.156 103.909H406.817Z" fill="#FF43AE"/>
<path d="M434.604 107.182C434.527 106.534 434.216 106.031 433.67 105.673C433.125 105.315 432.456 105.136 431.663 105.136C431.084 105.136 430.577 105.23 430.142 105.418C429.712 105.605 429.375 105.863 429.132 106.191C428.893 106.519 428.774 106.892 428.774 107.31C428.774 107.659 428.857 107.96 429.023 108.211C429.194 108.458 429.411 108.665 429.675 108.831C429.94 108.993 430.217 109.127 430.506 109.234C430.796 109.336 431.062 109.419 431.305 109.483L432.635 109.841C432.976 109.93 433.355 110.054 433.773 110.212C434.195 110.369 434.597 110.585 434.981 110.857C435.369 111.126 435.688 111.471 435.94 111.893C436.191 112.315 436.317 112.832 436.317 113.446C436.317 114.153 436.131 114.793 435.761 115.364C435.394 115.935 434.857 116.388 434.15 116.725C433.447 117.062 432.592 117.23 431.587 117.23C430.649 117.23 429.837 117.079 429.151 116.776C428.469 116.474 427.933 116.052 427.54 115.511C427.153 114.969 426.933 114.341 426.882 113.625H428.518C428.561 114.119 428.727 114.528 429.017 114.852C429.311 115.172 429.682 115.411 430.129 115.568C430.581 115.722 431.067 115.798 431.587 115.798C432.192 115.798 432.735 115.7 433.217 115.504C433.698 115.304 434.08 115.027 434.361 114.673C434.642 114.315 434.783 113.898 434.783 113.42C434.783 112.986 434.661 112.632 434.418 112.359C434.175 112.087 433.856 111.865 433.46 111.695C433.063 111.524 432.635 111.375 432.175 111.247L430.564 110.787C429.541 110.493 428.732 110.073 428.135 109.528C427.538 108.982 427.24 108.268 427.24 107.386C427.24 106.653 427.438 106.014 427.835 105.469C428.235 104.919 428.772 104.493 429.445 104.19C430.123 103.884 430.879 103.73 431.714 103.73C432.558 103.73 433.308 103.881 433.964 104.184C434.621 104.482 435.141 104.891 435.524 105.411C435.912 105.931 436.116 106.521 436.138 107.182H434.604Z" fill="#FF43AE"/>
</svg>
