<svg width="47" height="46" viewBox="0 0 47 46" fill="none" xmlns="http://www.w3.org/2000/svg">
<path fill-rule="evenodd" clip-rule="evenodd" d="M30.1819 19.4622C30.5439 19.4351 30.9056 19.5184 31.2201 19.7013C31.5345 19.8841 31.7873 20.1581 31.9456 20.4878C32.1039 20.8174 32.1604 21.1874 32.1077 21.5498C32.0551 21.9122 31.8957 22.2503 31.6504 22.5202C31.405 22.7901 31.0849 22.9794 30.7317 23.0635C30.3784 23.1476 30.0083 23.1226 29.6692 22.9918C29.3302 22.861 29.038 22.6304 28.8304 22.3299C28.6228 22.0294 28.5095 21.6729 28.5052 21.3067C28.4913 20.8393 28.6589 20.385 28.9721 20.0405C29.2853 19.696 29.7194 19.4885 30.1819 19.4622ZM30.1819 16.2302C29.211 16.2469 28.2664 16.5517 27.4659 17.1066C26.6654 17.6615 26.0445 18.4419 25.6805 19.3505C25.3166 20.2591 25.2257 21.2557 25.4192 22.2161C25.6128 23.1765 26.0821 24.0581 26.7688 24.7511C27.4555 25.4441 28.3291 25.9178 29.2808 26.1131C30.2324 26.3084 31.22 26.2167 32.1203 25.8494C33.0207 25.4821 33.794 24.8555 34.3438 24.0477C34.8936 23.2398 35.1957 22.2866 35.2123 21.3067C35.2123 19.9603 34.6823 18.6691 33.7389 17.717C32.7956 16.765 31.5161 16.2302 30.1819 16.2302ZM30.1819 14.3011C31.0945 14.292 31.9997 14.4672 32.8441 14.8165C33.6885 15.1657 34.4552 15.6819 35.0989 16.3347C35.7427 16.9876 36.2505 17.7637 36.5925 18.6176C36.9345 19.4715 37.1037 20.3858 37.0903 21.3067C36.8974 24.0427 36.1194 26.704 34.8098 29.1075C34.2038 30.2846 33.4108 31.3535 32.4624 32.2719C31.8702 32.896 31.0695 33.2759 30.2155 33.338C29.3649 33.2816 28.5675 32.9004 27.9854 32.2719C27.037 31.3535 26.244 30.2846 25.6379 29.1075C24.3208 26.7072 23.5423 24.0441 23.3575 21.3067C23.3508 20.398 23.5225 19.4969 23.8624 18.6555C24.2024 17.814 24.7041 17.0488 25.3384 16.4039C25.9728 15.759 26.7274 15.2471 27.5587 14.8979C28.3899 14.5486 29.2815 14.3688 30.1819 14.3688V14.3011ZM18.4445 3.65739L25.9397 6.19563C26.8402 6.48503 27.767 6.68342 28.7064 6.78789V11.3398C26.3751 11.7374 24.2571 12.9509 22.724 14.7673C21.1909 16.5836 20.3407 18.8869 20.3225 21.2728C20.4657 24.5502 21.3796 27.7461 22.9886 30.5967C23.7555 32.0912 24.7707 33.4419 25.99 34.5902C26.7874 35.3199 27.731 35.8681 28.7567 36.1977V38.7698C28.7567 38.9765 28.797 39.1811 28.8754 39.372C28.9538 39.563 29.0686 39.7365 29.2134 39.8826C29.3582 40.0287 29.5301 40.1447 29.7193 40.2237C29.9085 40.3028 30.1113 40.3435 30.3161 40.3435C30.5209 40.3435 30.7237 40.3028 30.9128 40.2237C31.102 40.1447 31.2739 40.0287 31.4188 39.8826C31.5636 39.7365 31.6784 39.563 31.7568 39.372C31.8352 39.1811 31.8755 38.9765 31.8755 38.7698V36.1977C32.9043 35.8751 33.8492 35.3261 34.6422 34.5902C35.8667 33.4426 36.8875 32.0919 37.6604 30.5967C39.2285 27.7461 40.1129 24.5644 40.2426 21.3067C40.2362 18.912 39.3913 16.5967 37.8572 14.7698C36.3231 12.9429 34.1984 11.722 31.8587 11.3229V6.80481C32.7986 6.69461 33.7254 6.49055 34.6254 6.19563L42.2044 3.64046C42.3972 3.57157 42.6037 3.55117 42.8061 3.58101C43.0084 3.61086 43.2005 3.69005 43.3657 3.81174C43.5309 3.93343 43.6641 4.09393 43.754 4.27933C43.8438 4.46474 43.8875 4.66946 43.8812 4.87574V35.9947C43.881 36.8301 43.6202 37.6443 43.1356 38.3216C42.651 38.999 41.9673 39.5051 41.1816 39.7682L33.5355 42.3064C31.3586 43.038 29.0053 43.038 26.8284 42.3064L19.3332 39.7682C18.4364 39.4683 17.5078 39.2752 16.5665 39.1929V8.73388C16.5628 8.33369 16.4082 7.94995 16.1341 7.66074C15.86 7.37154 15.487 7.19859 15.091 7.17709C14.8855 7.17704 14.6822 7.2184 14.4928 7.29875C14.3034 7.37909 14.1318 7.4968 13.9881 7.64496C13.8444 7.79313 13.7315 7.96877 13.656 8.16157C13.5805 8.35437 13.5439 8.56045 13.5483 8.76772V39.2267C12.5864 39.3499 11.6414 39.5827 10.7314 39.9205L4.72851 42.2049C4.5458 42.3048 4.33952 42.3523 4.13197 42.3425C3.92442 42.3326 3.72348 42.2658 3.55086 42.149C3.37824 42.0323 3.24051 41.8702 3.15254 41.6802C3.06457 41.4903 3.02971 41.2797 3.05173 41.0712V9.98608C3.06825 9.12422 3.34528 8.28802 3.84573 7.58943C4.34618 6.89084 5.04615 6.36321 5.85194 6.07718L11.8213 3.77584C12.8666 3.37611 13.9732 3.16421 15.091 3.14974C16.2292 3.12624 17.3632 3.2979 18.4445 3.65739ZM15.091 0.00230916C13.6006 0.0165089 12.1246 0.29724 10.7314 0.83147L4.72851 3.08205C3.33855 3.61164 2.14147 4.55603 1.29672 5.78944C0.451974 7.02285 -0.000350608 8.48673 2.03906e-07 9.98608V41.0712C0.00989393 41.7739 0.185831 42.4641 0.513191 43.0844C0.840552 43.7048 1.30988 44.2373 1.88218 44.6378C2.45448 45.0383 3.11322 45.2951 3.80367 45.387C4.49411 45.4789 5.19632 45.4032 5.85194 45.1662L11.8213 42.8987C13.9485 42.0895 16.2865 42.0417 18.4445 42.7633L25.9397 45.3016C28.7499 46.2328 31.7816 46.2328 34.5919 45.3016L42.1709 42.7633C43.5758 42.2859 44.7971 41.3762 45.6633 40.1622C46.5294 38.9481 46.9969 37.4907 47 35.9947V4.87574C46.9912 4.17204 46.819 3.48023 46.4972 2.85586C46.1755 2.23148 45.7132 1.69195 45.1474 1.28056C44.5816 0.869182 43.928 0.597421 43.2393 0.4871C42.5506 0.376779 41.8458 0.430974 41.1816 0.645332L33.5355 3.2005C31.3586 3.93211 29.0053 3.93211 26.8284 3.2005L19.3835 0.662253C18.0002 0.1977 16.5486 -0.0254784 15.091 0.00230916Z" fill="#B677EA"/>
</svg>
